<svg width="49" height="48" viewBox="0 0 49 48" fill="none" xmlns="http://www.w3.org/2000/svg">
<path fill-rule="evenodd" clip-rule="evenodd" d="M14.8058 2.58579C15.1809 2.21071 15.6896 2 16.22 2H32.78C33.3104 2 33.8191 2.21071 34.1942 2.58579L45.9142 14.3058C46.2893 14.6809 46.5 15.1896 46.5 15.72V32.28C46.5 32.8104 46.2893 33.3191 45.9142 33.6942L34.1942 45.4142C33.8191 45.7893 33.3104 46 32.78 46H16.22C15.6896 46 15.1809 45.7893 14.8058 45.4142L3.08579 33.6942C2.71071 33.3191 2.5 32.8104 2.5 32.28V15.72C2.5 15.1896 2.71071 14.6809 3.08579 14.3058L14.8058 2.58579ZM17.0484 6L6.5 16.5484V31.4516L17.0484 42H31.9516L42.5 31.4516V16.5484L31.9516 6H17.0484Z" fill="#F35625"/>
<path fill-rule="evenodd" clip-rule="evenodd" d="M24.5 14C25.6046 14 26.5 14.8954 26.5 16V24C26.5 25.1046 25.6046 26 24.5 26C23.3954 26 22.5 25.1046 22.5 24V16C22.5 14.8954 23.3954 14 24.5 14Z" fill="#F35625"/>
<path fill-rule="evenodd" clip-rule="evenodd" d="M22.5 32C22.5 30.8954 23.3954 30 24.5 30H24.52C25.6246 30 26.52 30.8954 26.52 32C26.52 33.1046 25.6246 34 24.52 34H24.5C23.3954 34 22.5 33.1046 22.5 32Z" fill="#F35625"/>
</svg>
