<svg width="12" height="11" viewBox="0 0 12 11" fill="none" xmlns="http://www.w3.org/2000/svg">
    <path fill-rule="evenodd" clip-rule="evenodd"
        d="M5.26411 0.641529C5.48876 0.515052 5.74221 0.448608 6.00001 0.448608C6.25781 0.448608 6.51126 0.515052 6.73591 0.641529C6.96055 0.768006 7.14881 0.950246 7.28251 1.17067L7.28395 1.17304L11.5189 8.24304L11.523 8.24995C11.654 8.47677 11.7233 8.73392 11.724 8.99584C11.7247 9.25776 11.6569 9.5153 11.5272 9.74284C11.3975 9.97039 11.2105 10.16 10.9847 10.2928C10.759 10.4257 10.5024 10.4971 10.2405 10.5L10.235 10.5L1.75951 10.5C1.49761 10.4971 1.24103 10.4257 1.0153 10.2928C0.789559 10.16 0.602537 9.97039 0.472835 9.74284C0.343133 9.5153 0.275274 9.25776 0.276007 8.99584C0.27674 8.73392 0.346041 8.47677 0.477015 8.24995L0.481077 8.24304L4.7175 1.17066C4.85121 0.950242 5.03947 0.768006 5.26411 0.641529ZM6.00001 1.44861C5.91408 1.44861 5.82959 1.47076 5.75471 1.51292C5.68017 1.55488 5.61765 1.61527 5.57312 1.6883L1.34135 8.75289C1.29877 8.82779 1.27624 8.91244 1.276 8.99864C1.27576 9.08595 1.29838 9.17179 1.34161 9.24764C1.38485 9.32349 1.44719 9.3867 1.52243 9.43097C1.59702 9.47486 1.68171 9.49863 1.76821 9.49998H10.2318C10.3183 9.49863 10.403 9.47486 10.4776 9.43097C10.5528 9.3867 10.6152 9.32349 10.6584 9.24764C10.7016 9.17179 10.7243 9.08595 10.724 8.99864C10.7238 8.91245 10.7013 8.82781 10.6587 8.75292L6.42751 1.68929L6.42691 1.6883C6.38238 1.61527 6.31985 1.55488 6.24531 1.51292C6.17043 1.47076 6.08594 1.44861 6.00001 1.44861Z"
        fill="#000000" />
    <path fill-rule="evenodd" clip-rule="evenodd"
        d="M6.00001 3.49998C6.27615 3.49998 6.50001 3.72384 6.50001 3.99998V5.99998C6.50001 6.27612 6.27615 6.49998 6.00001 6.49998C5.72387 6.49998 5.50001 6.27612 5.50001 5.99998V3.99998C5.50001 3.72384 5.72387 3.49998 6.00001 3.49998Z"
        fill="#000000" />
    <path fill-rule="evenodd" clip-rule="evenodd"
        d="M5.50001 7.99998C5.50001 7.72384 5.72387 7.49998 6.00001 7.49998H6.00501C6.28115 7.49998 6.50501 7.72384 6.50501 7.99998C6.50501 8.27612 6.28115 8.49998 6.00501 8.49998H6.00001C5.72387 8.49998 5.50001 8.27612 5.50001 7.99998Z"
        fill="#000000" />
</svg>