<svg width="14" height="14" viewBox="0 0 14 14" fill="none" xmlns="http://www.w3.org/2000/svg">
    <path fill-rule="evenodd" clip-rule="evenodd"
        d="M6.99992 0.333313C7.46016 0.333313 7.83325 0.706409 7.83325 1.16665V12.8333C7.83325 13.2936 7.46016 13.6666 6.99992 13.6666C6.53968 13.6666 6.16658 13.2936 6.16658 12.8333V1.16665C6.16658 0.706409 6.53968 0.333313 6.99992 0.333313Z"
        fill="#000000" />
    <path fill-rule="evenodd" clip-rule="evenodd"
        d="M0.57733 6.41072C0.902767 6.08529 1.4304 6.08529 1.75584 6.41072L6.99992 11.6548L12.244 6.41072C12.5694 6.08529 13.0971 6.08529 13.4225 6.41072C13.7479 6.73616 13.7479 7.2638 13.4225 7.58923L7.58917 13.4226C7.26374 13.748 6.7361 13.748 6.41066 13.4226L0.57733 7.58923C0.251893 7.2638 0.251893 6.73616 0.57733 6.41072Z"
        fill="#000000" />
</svg>