<svg width="32" height="33" viewBox="0 0 32 33" fill="none" xmlns="http://www.w3.org/2000/svg">
    <path fill-rule="evenodd" clip-rule="evenodd"
        d="M5.33749 7.43698C5.33346 7.42375 5.33341 7.41681 5.33341 7.41659V7.41659C5.33341 7.41659 5.33339 7.40964 5.33749 7.3962C5.34201 7.38134 5.35318 7.35198 5.38018 7.30801C5.43677 7.21582 5.55219 7.07722 5.7684 6.90682C6.20864 6.55987 6.9283 6.18912 7.93644 5.85307C9.93878 5.18562 12.7898 4.74992 16.0001 4.74992C19.2104 4.74992 22.0614 5.18562 24.0637 5.85307C25.0719 6.18912 25.7915 6.55987 26.2318 6.90682C26.448 7.07722 26.5634 7.21582 26.62 7.30801C26.647 7.35198 26.6581 7.38134 26.6627 7.3962C26.6669 7.41 26.6667 7.41667 26.6667 7.41667C26.6667 7.41667 26.6668 7.42353 26.6627 7.43698C26.6581 7.45183 26.647 7.48119 26.62 7.52516C26.5634 7.61735 26.448 7.75596 26.2318 7.92635C25.7915 8.2733 25.0719 8.64405 24.0637 8.9801C22.0614 9.64755 19.2104 10.0833 16.0001 10.0833C12.7898 10.0833 9.93878 9.64755 7.93644 8.9801C6.9283 8.64405 6.20864 8.2733 5.7684 7.92635C5.55219 7.75596 5.43677 7.61735 5.38018 7.52516C5.35318 7.48119 5.34201 7.45183 5.33749 7.43698ZM29.3334 7.41659V16.7499V26.0833C29.3334 27.2158 28.6492 28.086 27.8907 28.687C27.1189 29.2986 26.0839 29.7902 24.9223 30.178C24.2361 30.4071 23.4798 30.6084 22.6667 30.7786V30.7499C21.2787 30.4029 21.2787 28.4303 22.6667 28.0833V28.0466C23.1739 27.9261 23.6459 27.7927 24.0779 27.6485C25.0829 27.313 25.798 26.9429 26.2345 26.597C26.4488 26.4272 26.5631 26.289 26.6193 26.1968C26.6462 26.1527 26.6575 26.1229 26.6622 26.1073C26.6666 26.0926 26.6667 26.0833 26.6667 26.0833V16.7499V10.7854C26.1318 11.059 25.5379 11.2996 24.907 11.5099C22.5662 12.2902 19.4172 12.7499 16.0001 12.7499C12.5829 12.7499 9.43397 12.2902 7.09316 11.5099C6.46229 11.2996 5.86839 11.0589 5.33341 10.7854V26.0833C5.33341 26.0833 5.33352 26.0926 5.33795 26.1073C5.34268 26.1229 5.35401 26.1527 5.38085 26.1968C5.43704 26.289 5.55139 26.4272 5.76566 26.597C6.2022 26.9429 6.91725 27.313 7.9223 27.6485C8.35428 27.7927 8.82625 27.9261 9.33342 28.0466V28.0833C10.7215 28.4303 10.7215 30.4029 9.33342 30.7499V30.7786C8.52039 30.6084 7.7641 30.4071 7.07786 30.178C5.91625 29.7902 4.8813 29.2986 4.1095 28.687C3.35101 28.086 2.66675 27.2158 2.66675 26.0833V7.41659C2.66675 6.28066 3.35861 5.4107 4.1178 4.81239C4.89203 4.20223 5.92973 3.71106 7.09316 3.32325C9.43397 2.54298 12.5829 2.08325 16.0001 2.08325C19.4172 2.08325 22.5662 2.54298 24.907 3.32325C26.0704 3.71106 27.1081 4.20223 27.8824 4.81239C28.6416 5.4107 29.3334 6.28066 29.3334 7.41659Z"
        fill="#000000" />
    <path fill-rule="evenodd" clip-rule="evenodd"
        d="M22.276 24.3596C21.7553 24.8803 20.9111 24.8803 20.3904 24.3596L15.9998 19.969L11.6093 24.3596C11.0886 24.8803 10.2444 24.8803 9.72369 24.3596C9.20299 23.8389 9.20299 22.9946 9.72369 22.4739L15.057 17.1406C15.5777 16.6199 16.4219 16.6199 16.9426 17.1406L22.276 22.4739C22.7967 22.9946 22.7967 23.8389 22.276 24.3596Z"
        fill="#000000" />
    <path fill-rule="evenodd" clip-rule="evenodd"
        d="M15.9998 31.4167C15.2635 31.4167 14.6665 30.8198 14.6665 30.0834L14.6665 18.0834C14.6665 17.347 15.2635 16.7501 15.9998 16.7501C16.7362 16.7501 17.3332 17.347 17.3332 18.0834L17.3332 30.0834C17.3332 30.8198 16.7362 31.4167 15.9998 31.4167Z"
        fill="#000000" />
</svg>