<svg width="32" height="32" viewBox="0 0 32 32" fill="none" xmlns="http://www.w3.org/2000/svg">
    <path fill-rule="evenodd" clip-rule="evenodd"
        d="M29.3334 6.6665H2.66675V25.3332C2.66675 28.2787 8.63628 30.6665 16.0001 30.6665C23.3639 30.6665 29.3334 28.2787 29.3334 25.3332V6.6665Z"
        fill="#28CA9E" />
    <ellipse cx="16.0001" cy="6.66659" rx="13.3333" ry="5.33333" fill="#7EDFC5" />
    <path fill-rule="evenodd" clip-rule="evenodd"
        d="M20.9429 16.3905C21.4636 16.9112 21.4636 17.7554 20.9429 18.2761L15.6096 23.6095C15.0889 24.1302 14.2446 24.1302 13.7239 23.6095L11.0573 20.9428C10.5366 20.4221 10.5366 19.5779 11.0573 19.0572C11.578 18.5365 12.4222 18.5365 12.9429 19.0572L14.6667 20.781L19.0573 16.3905C19.578 15.8698 20.4222 15.8698 20.9429 16.3905Z"
        fill="white" />
</svg>