<svg width="47" height="44" viewBox="0 0 47 44" fill="none" xmlns="http://www.w3.org/2000/svg">
    <path fill-rule="evenodd" clip-rule="evenodd"
        d="M32.5 16C32.5 14.8954 33.3954 14 34.5 14H36.5C39.1522 14 41.6957 15.0536 43.5711 16.9289C45.4464 18.8043 46.5 21.3478 46.5 24C46.5 26.6522 45.4464 29.1957 43.5711 31.0711C41.6957 32.9464 39.1522 34 36.5 34H34.5C33.3954 34 32.5 33.1046 32.5 32C32.5 30.8954 33.3954 30 34.5 30H36.5C38.0913 30 39.6174 29.3679 40.7426 28.2426C41.8679 27.1174 42.5 25.5913 42.5 24C42.5 22.4087 41.8679 20.8826 40.7426 19.7574C39.6174 18.6321 38.0913 18 36.5 18H34.5C33.3954 18 32.5 17.1046 32.5 16Z"
        fill="#000000" />
    <path fill-rule="evenodd" clip-rule="evenodd"
        d="M0.5 16C0.5 14.8954 1.39543 14 2.5 14H34.5C35.6046 14 36.5 14.8954 36.5 16V34C36.5 36.6522 35.4464 39.1957 33.5711 41.0711C31.6957 42.9464 29.1522 44 26.5 44H10.5C7.84783 44 5.3043 42.9464 3.42893 41.0711C1.55357 39.1957 0.5 36.6522 0.5 34V16ZM4.5 18V34C4.5 35.5913 5.13214 37.1174 6.25736 38.2426C7.38258 39.3679 8.9087 40 10.5 40H26.5C28.0913 40 29.6174 39.3679 30.7426 38.2426C31.8679 37.1174 32.5 35.5913 32.5 34V18H4.5Z"
        fill="#000000" />
    <path fill-rule="evenodd" clip-rule="evenodd"
        d="M10.5 0C11.6046 0 12.5 0.89543 12.5 2V8C12.5 9.10457 11.6046 10 10.5 10C9.39543 10 8.5 9.10457 8.5 8V2C8.5 0.89543 9.39543 0 10.5 0Z"
        fill="#000000" />
    <path fill-rule="evenodd" clip-rule="evenodd"
        d="M18.5 0C19.6046 0 20.5 0.89543 20.5 2V8C20.5 9.10457 19.6046 10 18.5 10C17.3954 10 16.5 9.10457 16.5 8V2C16.5 0.89543 17.3954 0 18.5 0Z"
        fill="#000000" />
    <path fill-rule="evenodd" clip-rule="evenodd"
        d="M26.5 0C27.6046 0 28.5 0.89543 28.5 2V8C28.5 9.10457 27.6046 10 26.5 10C25.3954 10 24.5 9.10457 24.5 8V2C24.5 0.89543 25.3954 0 26.5 0Z"
        fill="#000000" />
</svg>