<svg width="18" height="20" viewBox="0 0 18 20" fill="none" xmlns="http://www.w3.org/2000/svg">
    <path fill-rule="evenodd" clip-rule="evenodd"
        d="M9.5117 1.00885C9.21077 0.7748 8.78939 0.7748 8.48846 1.00885L0.988464 6.84219C0.785475 7.00007 0.666748 7.24282 0.666748 7.49998V16.6666C0.666748 17.3297 0.93014 17.9656 1.39898 18.4344C1.86782 18.9033 2.50371 19.1666 3.16675 19.1666H6.50008H11.5001H14.8334C15.4965 19.1666 16.1323 18.9033 16.6012 18.4344C17.07 17.9656 17.3334 17.3297 17.3334 16.6666V7.49998C17.3334 7.24282 17.2147 7.00007 17.0117 6.84219L9.5117 1.00885ZM5.66675 17.5V18.3333C5.66675 18.7935 6.03984 19.1666 6.50008 19.1666C6.96032 19.1666 7.33342 18.7935 7.33342 18.3333V17.5H10.6667V10.8333H7.33342V17.5H5.66675ZM5.66675 17.5H3.16675C2.94573 17.5 2.73377 17.4122 2.57749 17.2559C2.42121 17.0996 2.33341 16.8877 2.33341 16.6666V7.90755L9.00008 2.72236L15.6667 7.90755V16.6666C15.6667 16.8877 15.579 17.0996 15.4227 17.2559C15.2664 17.4122 15.0544 17.5 14.8334 17.5H12.3334V9.99998C12.3334 9.53974 11.9603 9.16665 11.5001 9.16665H6.50008C6.03984 9.16665 5.66675 9.53974 5.66675 9.99998V17.5Z"
        fill="#000000" />
    <path
        d="M6.50008 19.1666C6.96032 19.1666 7.33342 18.7935 7.33342 18.3333V17.5H5.66675V18.3333C5.66675 18.7935 6.03984 19.1666 6.50008 19.1666Z"
        fill="#000000" />
</svg>