<svg width="37" height="36" viewBox="0 0 37 36" fill="none" xmlns="http://www.w3.org/2000/svg">
    <path fill-rule="evenodd" clip-rule="evenodd"
        d="M34.6786 1.1549C35.3295 1.80578 35.3295 2.86105 34.6786 3.51193L32.5238 5.66675L36.3453 9.48824C36.9962 10.1391 36.9962 11.1944 36.3453 11.8453L30.512 17.6786C29.8611 18.3295 28.8058 18.3295 28.155 17.6786L24.3335 13.8571L19.7561 18.4345C20.2685 19.1275 20.6976 19.8809 21.033 20.6792C21.5864 21.9964 21.8737 23.4101 21.8785 24.8389C21.8833 26.2676 21.6054 27.6832 21.0609 29.0041C20.5163 30.3251 19.7158 31.5252 18.7056 32.5355C17.6953 33.5458 16.4951 34.3462 15.1742 34.8908C13.8533 35.4354 12.4377 35.7132 11.0089 35.7084C9.58018 35.7037 8.16649 35.4163 6.84925 34.8629C5.53201 34.3095 4.33725 33.501 3.33375 32.484L3.32125 32.4713C1.34787 30.4281 0.256 27.6916 0.280683 24.8511C0.305366 22.0106 1.4447 19.2935 3.45328 17.2849C5.46187 15.2763 8.17901 14.137 11.0195 14.1123C13.3075 14.0924 15.5281 14.7971 17.3732 16.1033L32.3216 1.1549C32.9725 0.50403 34.0278 0.50403 34.6786 1.1549ZM16.3699 19.5933C16.3544 19.5794 16.3391 19.5652 16.3239 19.5506C14.9094 18.1844 13.0149 17.4284 11.0484 17.4455C9.08196 17.4626 7.20087 18.2514 5.81031 19.6419C4.41974 21.0325 3.63098 22.9136 3.61389 24.8801C3.59683 26.8436 4.35049 28.7354 5.71279 30.1492C6.40622 30.8503 7.23113 31.4078 8.14032 31.7898C9.05225 32.1729 10.031 32.3718 11.0201 32.3751C12.0092 32.3784 12.9893 32.1861 13.9037 31.8091C14.8182 31.4321 15.6491 30.8779 16.3485 30.1785C17.048 29.479 17.6021 28.6482 17.9791 27.7337C18.3561 26.8192 18.5485 25.8392 18.5452 24.8501C18.5419 23.8609 18.3429 22.8822 17.9598 21.9703C17.5871 21.0831 17.0472 20.2761 16.3699 19.5933ZM26.6905 11.5001L29.3335 14.1431L32.8098 10.6667L30.1668 8.02377L26.6905 11.5001Z"
        fill="#6A7682" />
</svg>