<svg width="22" height="20" viewBox="0 0 22 20" fill="none" xmlns="http://www.w3.org/2000/svg">
    <path fill-rule="evenodd" clip-rule="evenodd"
        d="M11.1274 2.08125C9.41004 1.83765 7.66003 2.15882 6.14109 2.99636C4.62214 3.83389 3.41655 5.14241 2.70598 6.72474C1.99542 8.30707 1.81838 10.0775 2.20154 11.7692C2.58471 13.4609 3.50731 14.9822 4.83033 16.1039C6.15335 17.2257 7.80511 17.887 9.5367 17.9883C11.2683 18.0896 12.9859 17.6254 14.4307 16.6656C15.8755 15.7058 16.9692 14.3024 17.547 12.6669C17.731 12.1462 18.3023 11.8732 18.823 12.0571C19.3437 12.2411 19.6167 12.8124 19.4328 13.3331C18.7105 15.3775 17.3434 17.1317 15.5374 18.3315C13.7314 19.5312 11.5844 20.1115 9.4199 19.9849C7.25541 19.8583 5.19072 19.0316 3.53694 17.6294C1.88316 16.2273 0.729903 14.3256 0.25095 12.211C-0.228004 10.0963 -0.00670403 7.88334 0.881502 5.90543C1.76971 3.92752 3.2767 2.29187 5.17538 1.24495C7.07406 0.198037 9.26158 -0.203423 11.4083 0.101069C13.5498 0.404833 15.535 1.39476 17.0662 2.92215L19.9999 5.68473V2.00002C19.9999 1.44773 20.4476 1.00002 20.9999 1.00002C21.5522 1.00002 21.9999 1.44773 21.9999 2.00002V8.00002C21.9999 8.5523 21.5522 9.00002 20.9999 9.00002H14.9999C14.4476 9.00002 13.9999 8.5523 13.9999 8.00002C13.9999 7.44773 14.4476 7.00002 14.9999 7.00002H18.4793L15.6843 4.36803C15.677 4.3611 15.6697 4.35405 15.6626 4.3469C14.4364 3.12 12.8448 2.32484 11.1274 2.08125Z"
        fill="#8593A3" />
</svg>