<svg width="49" height="49" viewBox="0 0 49 49" fill="none" xmlns="http://www.w3.org/2000/svg">
<path fill-rule="evenodd" clip-rule="evenodd" d="M13.2646 10.4362C16.344 7.97295 20.25 6.5 24.5 6.5C34.4411 6.5 42.5 14.5589 42.5 24.5C42.5 28.75 41.0271 32.656 38.5638 35.7354L13.2646 10.4362ZM10.4362 13.2646L8.94579 11.7742C8.16474 10.9932 8.16474 9.72683 8.94579 8.94579C9.72683 8.16474 10.9932 8.16474 11.7742 8.94579L13.2646 10.4362C12.2205 11.2714 11.2714 12.2205 10.4362 13.2646ZM10.4362 13.2646L35.7354 38.5638C32.656 41.0271 28.75 42.5 24.5 42.5C14.5589 42.5 6.5 34.4411 6.5 24.5C6.5 20.25 7.97295 16.344 10.4362 13.2646ZM24.5 2.5C12.3497 2.5 2.5 12.3497 2.5 24.5C2.5 36.6503 12.3497 46.5 24.5 46.5C36.6503 46.5 46.5 36.6503 46.5 24.5C46.5 12.3497 36.6503 2.5 24.5 2.5Z" fill="#F35625"/>
<path d="M11.7742 8.94579C10.9932 8.16474 9.72683 8.16474 8.94579 8.94579C8.16474 9.72683 8.16474 10.9932 8.94579 11.7742L10.4362 13.2646C11.2714 12.2205 12.2205 11.2714 13.2646 10.4362L11.7742 8.94579Z" fill="#F35625"/>
</svg>
