<svg width="41" height="40" viewBox="0 0 41 40" fill="none" xmlns="http://www.w3.org/2000/svg">
<g clip-path="url(#clip0_3967_28386)">
<path d="M25.5 13.3333V24.9999V26.6666C25.5 27.2329 25.7824 27.7332 26.2141 28.0344C26.8033 26.959 27.7215 26.0894 28.8333 25.5613V24.9999V14.9999V11.6666H27.1667C26.2462 11.6666 25.5 12.4128 25.5 13.3333Z" fill="#28CA9E"/>
<path d="M28.8333 26.6666C28.8333 27.5871 28.0871 28.3333 27.1667 28.3333H31.3333H36.6053C35.6691 26.3625 33.6603 24.9999 31.3333 24.9999C30.4387 24.9999 29.591 25.2013 28.8333 25.5613V26.6666Z" fill="#28CA9E"/>
<path fill-rule="evenodd" clip-rule="evenodd" d="M2.16667 3.33325C1.24619 3.33325 0.5 4.07944 0.5 4.99992V26.6666C0.5 27.5871 1.24619 28.3333 2.16667 28.3333H4.39469C4.03474 29.091 3.83333 29.9386 3.83333 30.8333C3.83333 34.0549 6.44501 36.6666 9.66667 36.6666C12.8883 36.6666 15.5 34.0549 15.5 30.8333C15.5 29.9386 15.2986 29.091 14.9386 28.3333H26.0614C25.7014 29.091 25.5 29.9386 25.5 30.8333C25.5 34.0549 28.1117 36.6666 31.3333 36.6666C34.555 36.6666 37.1667 34.0549 37.1667 30.8333C37.1667 29.9386 36.9653 29.091 36.6053 28.3333H38.8333C39.7538 28.3333 40.5 27.5871 40.5 26.6666V18.3333C40.5 17.8912 40.3244 17.4673 40.0118 17.1547L35.0118 12.1547C34.6993 11.8422 34.2754 11.6666 33.8333 11.6666H28.8333V4.99992C28.8333 4.07944 28.0871 3.33325 27.1667 3.33325H2.16667ZM31.3333 24.9999H37.1667V19.0236L33.143 14.9999H28.8333V11.6666H27.1667C26.2462 11.6666 25.5 12.4128 25.5 13.3333V6.66659H3.83333V24.9999H9.66667C7.33967 24.9999 5.33091 26.3625 4.39469 28.3333H9.66667C8.28595 28.3333 7.16667 29.4525 7.16667 30.8333C7.16667 32.214 8.28595 33.3333 9.66667 33.3333C11.0474 33.3333 12.1667 32.214 12.1667 30.8333C12.1667 29.4525 11.0474 28.3333 9.66667 28.3333H14.9386C14.0024 26.3625 11.9937 24.9999 9.66667 24.9999H25.5V26.6666C25.5 27.2329 25.7824 27.7332 26.2141 28.0344C26.8033 26.959 27.7215 26.0894 28.8333 25.5613V26.6666C28.8333 27.5871 28.0871 28.3333 27.1667 28.3333H31.3333C29.9526 28.3333 28.8333 29.4525 28.8333 30.8333C28.8333 32.214 29.9526 33.3333 31.3333 33.3333C32.714 33.3333 33.8333 32.214 33.8333 30.8333C33.8333 29.4525 32.714 28.3333 31.3333 28.3333H36.6053C35.6691 26.3625 33.6603 24.9999 31.3333 24.9999ZM31.3333 24.9999C30.4387 24.9999 29.591 25.2013 28.8333 25.5613V24.9999H31.3333Z" fill="#28CA9E"/>
<path d="M9.66667 24.9999C7.33967 24.9999 5.33091 26.3625 4.39469 28.3333H9.66667H14.9386C14.0024 26.3625 11.9937 24.9999 9.66667 24.9999Z" fill="#28CA9E"/>
</g>
<defs>
<clipPath id="clip0_3967_28386">
<rect width="40" height="40" fill="white" transform="translate(0.5)"/>
</clipPath>
</defs>
</svg>
