<svg width="14" height="15" viewBox="0 0 14 15" fill="none" xmlns="http://www.w3.org/2000/svg">
    <path fill-rule="evenodd" clip-rule="evenodd"
        d="M1.00004 8.83331C1.36823 8.83331 1.66671 9.13179 1.66671 9.49998V12.1666C1.66671 12.3435 1.73695 12.513 1.86197 12.6381C1.98699 12.7631 2.15656 12.8333 2.33337 12.8333H11.6667C11.8435 12.8333 12.0131 12.7631 12.1381 12.6381C12.2631 12.513 12.3334 12.3435 12.3334 12.1666V9.49998C12.3334 9.13179 12.6319 8.83331 13 8.83331C13.3682 8.83331 13.6667 9.13179 13.6667 9.49998V12.1666C13.6667 12.6971 13.456 13.2058 13.0809 13.5809C12.7058 13.9559 12.1971 14.1666 11.6667 14.1666H2.33337C1.80294 14.1666 1.29423 13.9559 0.91916 13.5809C0.544088 13.2058 0.333374 12.6971 0.333374 12.1666V9.49998C0.333374 9.13179 0.631851 8.83331 1.00004 8.83331Z"
        fill="#000000" />
    <path
        d="M3.1953 5.30472C3.45565 5.56507 3.87776 5.56507 4.13811 5.30472L6.33337 3.10946V1.49998C6.33337 1.31625 6.4077 1.14987 6.52793 1.02929L6.52864 1.02858L3.1953 4.36191C2.93495 4.62226 2.93495 5.04437 3.1953 5.30472Z"
        fill="#000000" />
    <path
        d="M7.00004 10.1666C7.36823 10.1666 7.66671 9.86817 7.66671 9.49998V3.10946L7.00004 2.44279L6.33337 3.10946V9.49998C6.33337 9.86817 6.63185 10.1666 7.00004 10.1666Z"
        fill="#000000" />
    <path fill-rule="evenodd" clip-rule="evenodd"
        d="M7.47207 1.0292L10.8048 4.36191C11.0651 4.62226 11.0651 5.04437 10.8048 5.30472C10.5444 5.56507 10.1223 5.56507 9.86197 5.30472L7.66671 3.10946V1.49998C7.66671 1.48848 7.66642 1.47706 7.66584 1.4657C7.65719 1.2957 7.58462 1.14222 7.47207 1.0292ZM6.74482 0.883911C6.66678 0.916204 6.59363 0.963955 6.53005 1.02716C6.59116 0.966418 6.66398 0.91744 6.74482 0.883911Z"
        fill="#000000" />
    <path
        d="M7.47145 1.02858L7.47003 1.02716C7.40891 0.966411 7.33609 0.917428 7.25523 0.883899C7.17372 0.850175 7.08688 0.833313 7.00004 0.833313C6.91319 0.833313 6.82634 0.850179 6.74482 0.883911C6.66398 0.91744 6.59116 0.966418 6.53005 1.02716L6.52864 1.02858L6.52793 1.02929C6.4077 1.14987 6.33337 1.31625 6.33337 1.49998V3.10946L7.00004 2.44279L7.66671 3.10946V1.49998C7.66671 1.48848 7.66642 1.47706 7.66584 1.4657C7.65719 1.2957 7.58462 1.14222 7.47207 1.0292L7.47145 1.02858Z"
        fill="#000000" />
</svg>