<svg width="45" height="45" viewBox="0 0 45 45" fill="none" xmlns="http://www.w3.org/2000/svg">
    <path fill-rule="evenodd" clip-rule="evenodd"
        d="M11.2646 8.4362C14.344 5.97295 18.25 4.5 22.5 4.5C32.4411 4.5 40.5 12.5589 40.5 22.5C40.5 26.75 39.0271 30.656 36.5638 33.7354L11.2646 8.4362ZM8.4362 11.2646L6.94579 9.77421C6.16474 8.99317 6.16474 7.72683 6.94579 6.94579C7.72683 6.16474 8.99317 6.16474 9.77421 6.94579L11.2646 8.4362C10.2205 9.27143 9.27143 10.2205 8.4362 11.2646ZM8.4362 11.2646L33.7354 36.5638C30.656 39.0271 26.75 40.5 22.5 40.5C12.5589 40.5 4.5 32.4411 4.5 22.5C4.5 18.25 5.97295 14.344 8.4362 11.2646ZM22.5 0.5C10.3497 0.5 0.5 10.3497 0.5 22.5C0.5 34.6503 10.3497 44.5 22.5 44.5C34.6503 44.5 44.5 34.6503 44.5 22.5C44.5 10.3497 34.6503 0.5 22.5 0.5Z"
        fill="#000000" />
    <path
        d="M9.77421 6.94579C8.99317 6.16474 7.72683 6.16474 6.94579 6.94579C6.16474 7.72683 6.16474 8.99317 6.94579 9.77421L8.4362 11.2646C9.27143 10.2205 10.2205 9.27143 11.2646 8.4362L9.77421 6.94579Z"
        fill="#000000" />
</svg>